<?xml version="1.0" encoding="UTF-8"?>
<svg id="Layer_2_copy" data-name="Layer 2 copy" xmlns="http://www.w3.org/2000/svg" viewBox="0 0 1865.52 1915.35">
  <defs>
    <style>
      .cls-1 {
        fill: #40944b;
      }

      .cls-2 {
        fill: #e62e36;
      }

      .cls-3 {
        fill: #f1b05f;
      }

      .cls-4 {
        fill: #6491b8;
      }

      .cls-5 {
        fill: #94a5b2;
      }

      .cls-6 {
        fill: #ffe3be;
      }

      .cls-7 {
        fill: #ee9a42;
      }

      .cls-8 {
        fill: #d0eff3;
      }

      .cls-9 {
        fill: #a6b3bc;
      }

      .cls-10 {
        fill: #61ac65;
      }

      .cls-11 {
        fill: #fbcfc0;
      }

      .cls-12 {
        fill: #ed8105;
      }

      .cls-13 {
        fill: #e02731;
      }

      .cls-14 {
        fill: #8bb645;
      }

      .cls-15 {
        fill: #00a5c7;
      }

      .cls-16 {
        fill: #8ad1df;
      }

      .cls-17 {
        fill: #42944d;
      }

      .cls-18 {
        fill: #bb775c;
      }
    </style>
  </defs>
  <g id="Layer_3_copy" data-name="Layer 3 copy">
    <ellipse class="cls-5" cx="1670.83" cy="446.96" rx="169.93" ry="163.13"/>
    <polygon class="cls-5" points="28.61 744.68 149 744.68 153.55 784.75 144.17 894.22 111.54 915.97 107.46 1036.97 102.02 1043.76 66.21 1043.76 68.26 981.31 66.68 913.25 28.61 894.22 20.45 850.72 20.45 753.15 28.61 744.68"/>
    <polygon class="cls-5" points="1228.96 1768.65 1037.33 1822.73 1011.5 1848.56 975.73 1882.1 816.24 1907.94 794.33 1817.76 941.26 1771.52 967.68 1768.65 1026.45 1795.54 1185.51 1757.48 1225.87 1745.17 1228.96 1768.65"/>
  </g>
  <g id="Layer_3" data-name="Layer 3">
    <circle class="cls-12" cx="1670.83" cy="446.96" r="123.71"/>
  </g>
  <g>
    <path d="m235.12,984.94c2.1-86.14,13.26-165.39,44.16-240.83,24.79-60.51,52.77-119.47,91.75-172.44,52.95-71.96,115.44-133.45,192.1-180.71,59.22-36.51,121.22-65.91,188.41-83.17,36.21-9.3,73.38-15.96,110.53-20.24,53.98-6.22,108.29-5.61,162.38,1.22,49.29,6.22,96.42,20.58,142.89,37.56,69.98,25.56,134.24,61.36,192.01,108.32,49.64,40.35,92.1,87.63,129.71,139.33,74.81,102.85,114.95,219.02,130.21,344.16,8.42,69.04,2.12,137.57-14.54,205.17-24.44,99.15-66.33,190.04-128.26,271.35-65.62,86.15-147.04,153.15-244.23,201.32-62.74,31.09-128.38,52.03-197.6,61.98-66.16,9.51-132.25,10.09-198.75,1.99-74.12-9.02-144.71-29.31-211.5-62.06-79.77-39.12-146.7-95.15-207.02-159.96-48.06-51.64-85.6-109.78-115.65-173.31-33.1-69.99-54.29-143.29-62.9-220.15-2.4-21.44-2.72-43.11-3.69-59.53Zm22.73-5.2c1.63,24.81,2.37,49.71,5.06,74.4,8.66,79.35,34.9,153.59,71,223.99,61.72,120.37,152.61,214.45,269.35,282.01,66.04,38.22,138.33,61.74,213.96,74.38,86.75,14.5,172.99,13.58,258.82-6.36,65.28-15.16,126.47-40.46,184.5-73.88,51.23-29.5,98.61-64.24,139.64-106.64,64.21-66.36,113.05-142.91,148.66-228.37,36.34-87.22,57.38-177.03,49.95-271.74-3.15-40.12-9.36-80.29-17.99-119.61-13.27-60.47-37.34-117.24-66.96-171.62-62.74-115.15-150.88-204.84-266.38-267.55-108.95-59.16-224.19-89.6-349.01-81.4-64.32,4.23-126.79,14.69-187.81,36.39-115.93,41.22-212.6,109.44-292.31,202.4-58.23,67.9-97.43,146.69-126.73,230.33-22.95,65.48-33.49,133.58-33.75,203.27Z"/>
    <path d="m1215.58,1756.59c-3.09.32-6.29.22-9.26,1.01-41.35,11.12-82.64,22.43-123.99,33.55-14.96,4.02-29.88,8.63-45.12,11.02-7.51,1.17-15.99-1.23-23.55-3.56-15.95-4.92-31.49-11.12-47.36-16.29-12.42-4.04-24.82-3-37.25,1.14-34.05,11.35-68.17,22.49-102.38,33.35-10.08,3.2-20.48,5.58-30.88,7.55-4.55.87-9.46-.22-14.21-.41-.22-1.37-.44-2.74-.66-4.11,3.68-1.97,7.17-4.48,11.06-5.82,42.83-14.67,85.66-29.36,128.63-43.61,26.44-8.77,52.69-7.38,76.97,6.52,22.63,12.96,45.29,13.41,69.44,5.8,46.29-14.6,92.82-28.41,139.14-42.92,23.05-7.22,38.69-23.52,50.48-43.88,7.76-13.4,14.74-27.27,22.78-40.5,18.45-30.31,47.59-47.41,78.46-62.15,23.37-11.16,47.86-18.76,73.67-21.41,10.55-1.08,18.81-5.2,27.25-11.9,46-36.5,92.56-72.3,139.11-108.11,22.95-17.66,45.93-35.32,69.56-52.04,17.62-12.46,35.94-24.05,54.6-34.89,20.28-11.77,40.45-9.76,59.92,3.28,21.44,14.36,35.07,33.83,39.81,59.18,3.53,18.85-2.05,30.06-19.88,36.89-23.22,8.9-46.96,16.42-70.45,24.6-66.24,23.07-132.46,46.2-198.72,69.23-12.25,4.26-24.63,8.12-37.54,14.2,4.35,1.52,8.73,2.94,13.03,4.58,17.05,6.47,32.67,14.61,41.82,31.77,11.26,21.12,6.22,41.36-3.08,61.03-16.73,35.38-45.78,58.89-78.57,78.22-47.82,28.19-99.79,39.93-154.93,35.75-16.89-1.28-33.64-6.06-50.14-10.45-10.18-2.71-19.8-3.76-29.97-.79-59.9,17.47-119.95,34.45-179.67,52.55-9.65,2.92-20.61,8.64-26.24,16.46-21.31,29.59-50.89,43.76-85.13,50.55-40,7.92-80.07,15.48-120.15,22.97-4.32.81-8.92.11-13.4.11-.22-1.22-.45-2.44-.67-3.67,5.02-1.99,9.89-4.58,15.08-5.88,39.57-9.89,79.13-19.82,118.84-29.15,29.26-6.87,54.09-20.06,71.52-45.44,6.42-9.34,15.39-15.65,26.37-18.89,44.17-13.02,88.33-26.1,132.52-39.03,14.66-4.29,29.43-8.19,44.15-12.28-.34-1.39-.69-2.77-1.03-4.16Zm110.1,11.77c73.52,1.1,128.92-24.31,176.92-66.24,13.97-12.2,24.96-29.19,33.48-45.93,11.43-22.44,3.35-43.64-18.38-56.41-7.27-4.27-15.41-7.63-23.59-9.69-35.1-8.85-69.26-4.74-103.17,7.34-51.87,18.47-94.14,47.6-118.54,99-4.61,9.71-12.59,17.9-19.52,26.38-4.37,5.33-9.76,9.81-14.56,14.8-4.35,4.52-4.37,8.59,1.79,11.54,2.93,1.41,5.86,2.87,8.9,4,27.35,10.18,55.3,16.99,76.67,15.2Zm168.6-212.9c.44.64.89,1.27,1.33,1.91,1.48-.48,3.03-.8,4.44-1.45,73.03-33.55,147.69-62.73,224.99-85.03,20.73-5.98,41.19-13.02,61.45-20.46,17.86-6.57,21.44-16.26,13.14-33.47-7.43-15.4-19.16-27.34-33.09-36.91-10.92-7.5-22.61-8.66-34.46-1.38-6.24,3.84-13.08,6.83-18.92,11.18-71.48,53.35-142.83,106.87-214.17,160.41-1.84,1.38-3.16,3.45-4.72,5.19Z"/>
    <path d="m1865.48,980.91c0,86.86-.05,173.71.04,260.57.02,19.77-4.11,38.03-17.31,53.45-8.55,9.99-19.3,17.76-32.19,18.21-20.65.72-41.54.12-62.06-2.25-18.94-2.18-30.43-14.69-34.1-33.56-1.47-7.57-2.88-15.31-2.94-22.98-.38-50.97-.38-101.94-.54-152.91-.03-9.68,1.76-17.88,9.79-25.1,3.96-3.56,5.34-11.62,5.39-17.66.32-37.51-.38-75.03-.14-112.54.25-40.88,3.21-81.6,14.87-121,10.22-34.54,22.89-68.45,47.05-95.91,11.66-13.26,25.83-25.01,40.71-34.55,19.1-12.24,31.22-4.39,31.24,18.33.09,89.3.04,178.61.04,267.91h.15Zm-21.36-263.48c-4.14,1.47-7.19,1.76-9.17,3.37-20.41,16.61-36.62,36.72-42.19,62.72-6.86,32-1.91,64.21,3.2,96.06.63,3.91,4.96,9.32,8.55,10.24,9.69,2.49,11.67,8.3,11.77,17.08.63,59.54,1.74,119.07,2.32,178.61.5,51.38.42,102.76.8,154.14.08,10.18.87,20.37,1.87,30.5.29,2.91,1.99,7.58,3.82,7.99,2.97.67,7.12-.75,9.82-2.64,7.89-5.54,8.66-14.31,8.87-23.02.8-33.84,2.08-67.67,2.16-101.51.29-139.51.23-279.03.18-418.54,0-4.63-1.19-9.25-1.98-15Zm-71.61,105.13c-1.48-.23-2.96-.46-4.44-.69-3.56,16.52-7.96,32.9-10.52,49.57-9.05,58.97-8.11,118.52-9.11,177.93-.4,24.09,1.14,25.02,25.78,25.33,1.63.02,3.26.04,4.89.05,19.12.04,20.73-1.45,20.36-21.07-.62-32.97-1.41-65.94-2.34-98.9-.28-10.16-.94-20.34-2.02-30.45-.41-3.83-1.41-8.92-4.05-10.94-9.05-6.93-11.48-16.81-12.9-26.78-2.3-16.08-3.43-32.33-4.91-48.52-.47-5.15-.5-10.35-.73-15.52Zm-33.09,383.87c-2.35,19.18-5.11,37.1-2.49,55.32,3.16,22.02,22.77,36.02,44.92,32.76,8.97-1.32,14.66-6.12,14.58-15.05-.19-21.1-1.07-42.21-2.04-63.29-.35-7.6-4.76-8.23-11.9-7.34-10.25,1.29-20.79.4-31.2.07-3.47-.11-6.9-1.39-11.86-2.47Zm-1.15-59.66c-.06,0-.12,0-.18,0,0,10.18.09,20.35-.03,30.53-.09,8.17,2.98,11.84,11.85,10.72,10.47-1.32,21.08-1.63,31.64-2.03,10.58-.4,13.11-2.11,13.12-12.92.01-16.67-.31-33.37-1.46-50-1.71-24.67-4.67-26.93-29.71-26.01-2.84.1-5.68.45-8.5.88-12.53,1.92-15.99,5.37-16.64,18.32-.51,10.15-.1,20.35-.1,30.52Z"/>
    <path d="m296.09,1414.91c-.03.41-.14.83-.07,1.22,4.44,26.25,2.56,52.66,3.06,79.04.19,10.02,7.95,21.54,15.37,29.45,16.14,17.19,33.8,33.06,51.75,48.4,15.15,12.94,31.32,24.75,47.59,36.28,6.18,4.38,13.72,7.13,20.96,9.71,43.08,15.39,85.48,32.25,125.33,55.05,22.51,12.88,42.69,28.67,60.35,47.52,17.63,18.82,28.79,40.35,25.95,67.39-2.49,23.71-17.95,38.47-41.89,39.44-29.64,1.21-55.13-10.59-78.83-26.26-57.6-38.1-101.86-88.68-135.02-148.99-4.32-7.85-8.97-12.16-18.05-14.05-9.38-1.94-18.56-6.24-27.01-10.97-11.35-6.37-22.17-13.8-32.77-21.38-22.43-16.05-46.52-28.6-73.04-36.38-16.83-4.94-33.76-9.58-50.42-15.05-13.8-4.53-26.64-4.18-40.43,1.19-28.9,11.25-56.57,1.53-73.56-24.31-1.12-1.7-3.05-3.5-3.02-5.23.26-13.04-9.63-20.66-15.58-30.42-12.88-21.13-7.19-54.51,13.41-69.71,11.92-8.8,16.83-18.79,16.05-33.09-.99-18.19,8.26-30.83,23.34-40.05,26.52-16.22,60.66-15.49,85.25,2.61,4.92,3.62,9.1,4.51,14.53,1.87,39.48-19.2,69.1,7.23,84.18,37.59,2.75,5.54,2.46,12.59,3.58,18.94-.33.06-.66.12-1,.17Zm-63.92,13.06c1.29-.52,2.58-1.04,3.86-1.56,9.12,6.32,17.9,12.95,20.64,25.06,1.08,4.76,1.26,10.07,3.63,14.08,2.64,4.46,7.31,7.73,11.09,11.51,2.75-4.24,7.28-8.22,7.97-12.77,4.08-27.06-.18-53.14-15.85-75.69-12.47-17.95-31.14-21.04-50.68-11.53-2.93,1.43-5.87,2.83-8.76,4.35-6.92,3.64-11.52,2.43-16.22-4.63-3.84-5.76-9.74-11.3-16-14.06-16.54-7.3-33.66-5.97-49.62,2.22-14.83,7.61-29.78,26.34-21.82,46.59,2.86,7.27.09,12.58-5.84,16.89-3.29,2.39-6.25,5.26-9.6,7.56-21.68,14.93-22.3,43.8-3.38,62.74,6.33,6.33,10.31,12.99,12.74,21.55,4.65,16.38,18.46,24.26,35.04,20.06,6.93-1.75,13.89-5,19.7-9.15,6.73-4.81,12.79-5.64,20.49-3.06,15.83,5.31,31.76,10.45,47.91,14.63,37.05,9.58,71.51,24.56,103.43,45.81,13.18,8.77,27.47,15.93,41.61,23.15,4.91,2.51,10.88,2.96,16.36,4.35.61-1.28,1.22-2.56,1.82-3.83-2.99-2.84-5.75-6.01-9.02-8.48-41.81-31.54-79.63-67.33-113.58-107.17-14.01-16.45-23.28-35.36-25.87-57.1-.45-3.78-.06-7.67-.06-11.5Zm180.87,212.48c-.84.92-1.69,1.84-2.53,2.75,1.66,3.45,3,7.1,5.02,10.33,34.76,55.44,80.23,100.34,135.38,135.21,10.04,6.35,22.28,10.23,34.04,12.61,12.86,2.6,27.02,2.35,35.22-10.61,8.22-13,3.45-26.13-3.82-37.98-9.92-16.16-22.97-29.4-38.9-39.93-45.59-30.12-95.72-50.42-146.91-68.44-5.6-1.97-11.65-2.66-17.5-3.95Z"/>
    <path d="m487.99,66.07c32.34-.58,59.46,8.59,82.35,29.37,3.32,3.01,6.63,6.05,10.07,8.92,7.92,6.59,10.79,6.7,17.36-.89,4.5-5.2,7.78-11.43,11.95-16.94,5.39-7.11,10.43-14.7,16.88-20.74,9.04-8.47,18.2-8.45,27.39-.27,17.3,15.39,30.31,34.27,39.31,55.41,7.3,17.14.73,36.23-14.8,47.68-6.2,4.57-12.97,8.54-19.88,11.97-19.75,9.81-31.96,26.01-40.23,45.8-9.1,21.77-16.28,44.62-27.75,65.07-41.63,74.28-120.96,103.39-198.86,79.64-73.37-22.37-113.02-90.78-96.33-165.59,8.35-37.44,31.62-64.63,67.9-77.59,20.7-7.39,37.42-18.95,53-33.58,20.51-19.26,44.86-29.26,71.64-28.26Zm-35.65,287.21c26.95,2.23,56.88-10.84,83.31-33.47,16.36-14.01,28.89-31.28,38.27-50.33,9.33-18.96,17.11-38.77,24.3-58.67,5.96-16.5,15.85-29.2,30.33-38.63,7.17-4.67,14.48-9.13,21.64-13.82,4.42-2.9,9.01-5.68,12.91-9.2,8.6-7.77,10.28-14.93,4.8-25.12-4.8-8.92-10.46-17.52-16.72-25.49-8.9-11.34-11.21-11.14-20.19-.12-22.51,27.64-47.44,53.15-76.74,73.22-35.29,24.16-72.36,45.71-108.77,68.21-5.85,3.62-13.35,8.09-18.53.72-4.78-6.8,1.9-12.73,6.68-16.43,14.75-11.42,29.7-22.74,45.53-32.57,27.02-16.78,54.77-32.38,78.68-53.67,9.96-8.87,10.47-15.48-.92-22.2-13.91-8.21-28.47-16.82-43.89-20.65-30.88-7.69-61.61-5.4-85.74,18.45-17.61,17.41-38,28.72-60.59,37.88-11.36,4.61-23.26,11.5-31.05,20.65-27.64,32.47-30.48,82.78-8.13,119.12,26.58,43.21,66.6,61.67,124.83,62.11Z"/>
    <path d="m98.46,969.94c0-17.54.21-35.08-.09-52.61-.15-9,3.05-14.5,12.23-16.86,20.3-5.22,31.51-19.37,32.46-39.6,1.52-32.54,1.19-65.18,1.54-97.77.02-1.98-.23-4.56-1.44-5.83-3.12-3.26-6.85-5.94-10.34-8.85-2.36,3.42-5.64,6.54-6.84,10.33-1.31,4.13-.88,8.87-.92,13.35-.18,20.39-.25,40.79-.37,61.18-.02,3.26.13,6.55-.21,9.78-.48,4.61.74,11.13-6.19,10.94-1.8-.05-4.68-6.78-4.87-10.55-.54-10.57-.05-21.2.24-31.79.52-18.74,1.35-37.46,1.75-56.2.3-13.87,6.87-23.28,18.1-24.99,10.95-1.67,24.15,8.13,27.2,20.21.3,1.18.58,2.42.55,3.62-.81,39.91-.62,79.88-2.92,119.7-1.2,20.75-12.44,36.92-33.49,44.05-6.73,2.28-9.88,7.19-9.87,13.9.04,32.98.1,65.97.71,98.94.07,4,2.49,9.23,5.58,11.7,29.74,23.81,39.99,56.83,43.58,92.58,2.36,23.48,3.18,47.14,3.78,70.74.21,8.42-1.67,17.04-3.58,25.34-12.31,53.35-63.69,76.58-113.32,49.1-31.41-17.39-49.47-43.92-51.28-80.76-1.88-38.36,2-75.69,16.29-111.67,7.08-17.84,17.32-33.33,32.41-45.18,7.06-5.55,10.35-11.91,10.25-20.85-.3-28.55-.34-57.1-.21-85.65.04-8.17-2.55-13.63-10.46-17.34-20.66-9.71-32.08-26.62-32.66-49.28-.93-36.68-.84-73.39-.65-110.08.06-10.76,5.48-19.54,14.57-25.59,7.02-4.68,14.45-5.04,22.04-1.21,7.66,3.86,11.39,9.83,11.33,18.62-.2,30.59-.1,61.18-.17,91.77,0,2.43.06,5.02-.73,7.25-.58,1.65-2.74,4.15-3.76,3.96-1.99-.37-4.71-2.02-5.29-3.76-1.13-3.39-1.3-7.2-1.32-10.83-.14-20.39-.12-40.79-.18-61.18-.01-4.89.13-9.81-.28-14.67-.58-6.86-.43-15.28-10.01-15.4-9.18-.12-10.55,8.03-11.13,14.93-.93,10.95-1.12,21.97-1.24,32.97-.2,18.35-.05,36.71-.11,55.06-.08,23.48,10.75,40.26,32.6,48.12,11.63,4.19,14.4,10.89,14.01,21.96-1.07,30.96-1.49,61.94-2.11,92.92-.08,4.07.17,8.15.34,12.22.35,8.62,6.03,10.63,13.33,10.81,7.78.19,11.08-3.76,11.06-11.25-.05-18.76-.02-37.52-.02-56.28.04,0,.07,0,.11,0Zm50.55,212.66c-5.03-26.65-9.88-56.38-16.63-85.68-2.07-8.98-7.76-18.46-14.53-24.79-29.39-27.46-67.32-19.43-83.11,18.52-15.76,37.87-21.28,78.08-14.04,118.67,4.9,27.47,19.86,49.34,48.25,58.14,34.46,10.68,60.3-1.43,71.82-36.86,4.6-14.13,5.22-29.56,8.24-48Z"/>
    <path d="m187.32,658.86c-21.25.01-41.13-5.07-60.3-14.12-9.52-4.5-19.66-7.77-29.72-11-24.32-7.79-43.54-21.98-56.48-44.16-21.12-36.21-15.45-81.17,15.52-112.58,9.55-9.69,21.2-18.2,33.38-24.24,27.3-13.52,53.09-28.6,73.65-51.58,9.74-10.88,23.21-11.8,36.25-10.6,33.63,3.11,30.48-.27,41.6-25.14,2.99-6.7,5.4-13.8,9.4-19.84,2.05-3.1,7-4.27,10.64-6.31.91,3.88,3.41,8.24,2.42,11.56-3.12,10.52-7.26,20.77-11.55,30.89-3.34,7.87-2.75,14.16,4.8,19.09,14.02,9.15,17.18,21.35,11.64,37.08-8.67,24.63-3.38,48.32,6.96,71.25,7.95,17.63,13.21,35.58,13.85,55.3,1.25,38.36-25.53,74.78-62.47,87.71-5.76,2.02-11.67,3.89-17.67,4.85-7.22,1.16-14.6,1.27-21.91,1.84Zm-46.51-160.87c1.31.87,2.61,1.74,3.92,2.62-2.46,3.02-5.07,5.93-7.34,9.08-8.08,11.21-17.67,21.7-23.69,33.94-10.4,21.15-11.04,43.35,1.31,64.43,8.76,14.96,21.4,19.21,37.61,12.99,20.59-7.91,34.73-22.22,41.64-43.44,7.3-22.45,5.99-45.13,1.24-67.68-4.37-20.74-4.57-41.22.66-61.77,2.01-7.9,3.95-15.81,5.81-23.74,2.31-9.83.64-12.16-8.93-14.8-9.85-2.72-17.93,1.02-24.78,7.08-23.67,20.98-50.25,37.39-78.07,52.14-15.48,8.21-27.2,20.65-35.77,35.93-20.71,36.96-7.79,83.34,28.99,103.81,3.19,1.77,6.94,2.53,12.81,4.6-12.7-51.61-.64-90.61,44.59-115.2Zm22.28,139.88c2.15,2.02,2.63,2.89,3.29,3.05,34.29,8.26,76.2-9.13,94.58-39.06,16.52-26.9,14.88-54.76,2.14-81.85-12.79-27.18-17.64-54.61-11.87-84.21,2.52-12.94-.35-15.89-12.95-18.43-10.74-2.16-13.47-.62-18.64,10.54-13.01,28.05-14.58,57.08-8.79,87.19,2.67,13.88,4.15,28.27,3.87,42.38-.59,30.36-13.1,55.07-38.78,72.32-3.94,2.65-8.04,5.06-12.85,8.07Z"/>
    <path d="m924.36,57.09c-.76-4.78-1.2-7.45-1.61-10.12-5.26-33.93,15.68-50.26,47.93-46.42,6.7.8,8.34,5.75,5,10.67-5.42,7.98-11.74,15.4-18.15,22.64-4.3,4.85-9.54,8.85-14.05,13.53-1.13,1.18-1.09,3.49-2.18,7.47,5.51-1.34,9.28-2.19,13.01-3.18,58.14-15.53,95.65,32.84,98.33,70.59,1.94,27.38-1.73,54.08-13.43,78.77-5.59,11.79-14.86,22.13-23.74,31.98-7.67,8.52-18.58,11.2-30.11,11.17-33.04-.08-66.08-.1-99.12.16-11.31.09-21.54-3.48-28.76-11.43-10.04-11.06-20.05-22.76-27.08-35.79-14.66-27.18-21.21-56.77-14.96-87.53,9.83-48.42,54.34-72.05,101.02-54.71,1.83.68,3.77,1.06,7.91,2.2Zm16.58,168.91c.02-.42.04-.85.06-1.27,12.22,0,24.44.07,36.65-.02,17.24-.12,29.19-8.5,36.96-23.61,12.02-23.36,18.05-48.17,15.66-74.31-.89-9.81-3.28-21-8.96-28.59-19.26-25.76-38.82-39.02-78.53-23.35-6.29,2.48-14.21,1.53-21.3,1.03-4.3-.3-8.41-2.94-12.68-4.28-41.61-13.02-74.9,10.66-76.56,54.18-1.08,28.29,7.61,53.74,21.67,77.75,6.92,11.82,17.5,17.99,30.98,18.96,18.66,1.35,37.35,2.35,56.03,3.5Z"/>
    <path d="m1429.71,227.52c0,7.75.26,15.5-.06,23.24-.46,11.26-2.82,13.95-14.3,12.83-22.3-2.17-44.52-5.18-66.73-8.16-14.13-1.9-28.26-4.01-42.26-6.66-32.39-6.12-60.31-20.74-85.31-42.51-34.62-30.15-30.61-80.48-13.5-109.84,17.83-30.61,45.4-44.34,79.31-44.26,82.14.2,130.45,50.43,139.78,125.36,2.06,16.55,2.48,33.3,3.66,49.96-.19.02-.39.03-.58.05Zm-181.19-84.46c.65-1.36,1.3-2.72,1.95-4.08,14.96,6.23,30.22,11.83,44.8,18.86,14.82,7.15,28.95,15.71,43.39,23.65.73-.51,1.45-1.02,2.18-1.53-1.07-3.64-1.75-7.46-3.27-10.9-9.91-22.37-20.08-44.62-29.99-66.99-1.93-4.36-5.98-8.91-.7-15.03,2.02,2.52,3.88,4.11,4.83,6.14,5.7,12.18,11.1,24.51,16.83,36.68,1.5,3.17,3.81,5.97,5.79,8.9,1.75,2.58,4.21,4.88,5.24,7.71,5.15,14.09,7.47,29.92,15.44,42.09,11.52,17.59,26.89,32.71,41.02,48.52,2.37,2.65,6.77,3.48,10.23,5.16,1.53-3.54,4.23-7.02,4.41-10.63,1.35-27.46.04-54.84-8.56-81.13-10.32-31.56-29.32-56.64-60.67-69.67-12.25-5.09-26.28-5.72-39.07-9.73-25.36-7.94-46.55-.4-65.72,15.93-34.54,29.42-33.53,83.11,2.46,110.68,8.98,6.88,19.05,12.72,29.35,17.45,35.46,16.28,73.83,19.58,111.96,23.57.81.08,1.77-1.32,3.13-2.4-1.42-2.21-2.45-4.41-4-6.16-21.59-24.29-45.52-45.35-75.74-58.8-18.88-8.4-36.87-18.8-55.27-28.31Z"/>
    <path d="m1790.77,513.33c.72,19.73-7.46,32.34-20.46,41.86-27.29,19.99-58.92,26.18-91.68,24.17-51.61-3.16-93.31-25.59-120.85-70.33-26.1-42.4-25.53-87.41-5.55-131.27,12.93-28.4,37.39-47.73,66.97-57.75,67.71-22.92,142.82,1.29,174.41,72.42,14.81,33.34,15.38,67.37-.45,100.73-6.12,12.9-15.65,22.48-32.76,24.32,1.03-3.91,1.32-6.58,2.41-8.86,2.64-5.51,5.68-10.83,8.52-16.26,25.75-49.28,11.77-96.31-23.98-130.18-47.51-45-110.41-46.23-158.94-2.96-21.8,19.44-33.25,43.88-34.08,73.26-.65,23.02.98,45.12,11.76,66.56,26.99,53.66,96.11,82.08,158.67,57.85,20.76-8.04,39.7-18.97,55.71-34.66,2.58-2.53,5.45-4.74,10.3-8.91Z"/>
    <path d="m1679.54,597.83c36.22.58,69.15-8.06,98.52-28.93,3.31-2.35,6.98-4.2,10.54-6.18,8.13-4.53,15.49-3.8,22.21,3,3.43,3.47,7.39,6.41,10.99,9.72,6.46,5.96,6.68,11.39.86,17.82-5.47,6.05-11.54,5.87-17.88-.55-.29-.29-.55-.61-.82-.91-12.19-13.5-12.35-13.69-26.58-2.63-24.33,18.9-53.13,24.38-82.54,27.03-76.78,6.92-151.26-38.28-184.17-113.83-13.82-31.72-12.86-65.25-7.55-98.66,1.91-12.03,5.52-23.82,8.69-35.62,2.49-9.28,6.79-11.69,15.08-9.2,8.69,2.61,10,5.72,6.24,15.68-12.54,33.21-16.2,67.05-8.76,102.08,16.04,75.55,95.59,125.13,155.18,121.18Z"/>
    <path d="m1665.27,290.63c-20.28,3.89-40.59,7.66-60.82,11.77-5.36,1.09-10.84,3.24-13.52-3.58-2.68-6.81,1.42-11.84,7.21-13.31,16.12-4.1,32.38-8.56,48.84-10.17,27.3-2.68,54.68-.98,81.12,7.16,56.34,17.35,91.5,56.28,109.39,111.18,13.35,40.96,9.59,82.11-3.03,122.71-1.2,3.86-2.89,7.68-5.02,11.1-3.28,5.27-8.51,6.38-13.91,3.97-5.71-2.55-3.64-7.39-2.28-11.66,7.58-23.77,13.65-47.81,13.72-72.99.26-83.7-64.04-150.46-147.77-153.4-4.48-.16-8.97-.02-13.45-.02-.17-.93-.33-1.85-.5-2.78Z"/>
    <path d="m794.33,1851.08c3.16-1.55,6.18-3.52,9.49-4.59,34.52-11.13,69.06-22.15,103.65-33.07,4.64-1.46,9.48-2.73,14.29-2.97,2.18-.11,5.77,2.1,6.38,4.01.55,1.7-1.75,4.8-3.51,6.59-1.28,1.3-3.68,1.56-5.64,2.12-31.75,9.03-63.45,18.24-95.3,26.89-9.2,2.5-18.85,3.36-28.29,4.97-.36-1.32-.72-2.64-1.07-3.96Z"/>
    <path d="m799.36,1879.19c43.9-11.76,87.79-23.58,131.75-35.1,2.07-.54,4.85,1.62,10.14,3.58-5,3.3-7.53,5.87-10.57,6.84-41.64,13.27-83.77,24.44-127.37,29.14-1.06.11-2.21-.61-3.31-.94-.21-1.17-.43-2.34-.64-3.51Z"/>
    <path d="m1511.4,299.38c2.13,1.04,5.89,1.72,7.67,3.97,6.32,7.95,12.54,16.09,17.68,24.83,3.37,5.72-2.79,11.93-9.98,10.34-2.58-.57-4.99-2.55-7.12-4.32-3.98-3.31-7.26-8.67-11.69-9.78-2.56-.64-6.39,6.13-10.36,8.15-3.18,1.62-7.73,2.09-11.11,1.11-1.71-.5-3.92-6.43-2.92-7.99,6.02-9.38,10.68-20.22,21.96-25,1.47-.62,3.16-.72,5.87-1.3Z"/>
    <path d="m86.09,854.26c-.78-3.55-2.26-7.1-2.21-10.64.24-20.34.93-40.68,1.27-61.03.21-12.79,3.77-26.01-5.24-37.78-.81-1.06,2.48-7.34,5.07-8.5,5.28-2.35,10.47-.54,13.04,5.35.6,1.39.71,3.29.32,4.77-8.29,31.23-4.17,63.18-5.79,94.8-.22,4.36-1.68,8.65-2.57,12.97-1.3.02-2.6.03-3.89.05Z"/>
    <path d="m1732.84,446.88c-11.82-1.17-22.39-1.84-32.82-3.46-3.03-.47-5.65-3.62-8.45-5.55,2.42-3.44,4.22-7.79,7.47-10.03,2.63-1.82,7.09-1.79,10.61-1.4,10.9,1.23,21.82,2.6,32.54,4.84,3.25.68,5.88,4.33,8.79,6.62-2.86,2.5-5.37,5.7-8.67,7.29-3.14,1.51-7.1,1.32-9.46,1.69Z"/>
    <path d="m1651.39,439.46c-21.89,7.54-49.87-2.67-58.99-20.21-1.62-3.11.24-8.04.49-12.12,3.11,1.14,6.48,1.86,9.29,3.51,11.55,6.8,22.89,13.94,34.38,20.82,4.09,2.45,8.39,4.54,14.83,8Z"/>
    <path d="m1685.75,469.08c9.95,14.06,20.16,27.95,29.69,42.29,3.26,4.91.31,9.15-5.26,9.15-4.06,0-9.95-1.09-11.86-3.87-9.43-13.67-15.04-28.98-17.01-45.36,1.48-.74,2.96-1.48,4.44-2.21Z"/>
    <path d="m1670.33,416.34c-8.32-16.27-8.71-33.51-7.07-50.87.21-2.24,3.87-4.16,5.94-6.22,2.36,2.49,6.05,4.6,6.87,7.52,4.8,17.02,2.53,33.55-5.74,49.58Z"/>
    <path d="m1647.11,476.41c-5.15,10.82-10.3,21.63-16.04,33.67-8.23-3.76-15.27-6.97-25.11-11.45,13.08-11.64,23.13-21.83,37.83-24.84,1.1.88,2.21,1.75,3.31,2.63Z"/>
    <path class="cls-3" d="m257.86,979.74c.26-69.7,10.8-137.79,33.75-203.27,29.31-83.64,68.51-162.43,126.73-230.33,79.71-92.96,176.39-161.18,292.31-202.4,61.02-21.7,123.49-32.16,187.81-36.39,124.82-8.2,240.06,22.24,349.01,81.4,115.5,62.71,203.64,152.4,266.38,267.55,29.63,54.38,53.69,111.15,66.96,171.62,8.63,39.31,14.84,79.49,17.99,119.61,7.43,94.7-13.61,184.51-49.95,271.74-35.61,85.46-84.45,162.02-148.66,228.37-41.03,42.4-88.41,77.14-139.64,106.64-58.03,33.42-119.23,58.72-184.5,73.88-85.82,19.94-172.06,20.86-258.82,6.36-75.63-12.64-147.92-36.16-213.96-74.38-116.74-67.56-207.64-161.64-269.35-282.01-36.1-70.41-62.34-144.64-71-223.99-2.69-24.69-3.43-49.59-5.06-74.4Zm663.48,621.75c20.35-1.03,40.73-1.78,61.06-3.14,102.85-6.91,196.89-40.74,283.54-95.31,59.88-37.71,110.13-86.04,153.75-142.06,112.78-144.85,153.58-308.31,127.88-488.73-4.49-31.52-17.03-61.96-26.6-92.68-18.73-60.13-47.7-115.21-84.06-166.44-83.05-117.01-194.22-195.74-330.73-237.71-96.42-29.64-194.9-32.94-294.12-13.7-57.79,11.21-111.77,32.68-164.47,58.18-69.49,33.62-130.31,78.22-181.97,136.08-77.92,87.27-123.05,190.69-151.21,302.28-10.57,41.9-10.31,85.6-10.59,128.92-.49,75.93,17.99,147.89,44,218.27,30.08,81.39,80.42,149.82,139.15,212.53,39.91,42.63,86.25,77.35,136.8,106.19,92.1,52.53,191.72,76.76,297.56,77.31Z"/>
    <path class="cls-9" d="m1325.68,1768.36c-21.37,1.79-49.33-5.02-76.67-15.2-3.04-1.13-5.97-2.59-8.9-4-6.16-2.96-6.13-7.03-1.79-11.54,4.8-4.99,10.2-9.47,14.56-14.8,6.94-8.47,14.92-16.67,19.52-26.38,24.4-51.4,66.67-80.53,118.54-99,33.91-12.08,68.07-16.2,103.17-7.34,8.18,2.06,16.32,5.42,23.59,9.69,21.73,12.76,29.81,33.96,18.38,56.41-8.53,16.74-19.51,33.72-33.48,45.93-48,41.94-103.41,67.35-176.92,66.24Zm9.45-62.53c.4,1.21.8,2.42,1.21,3.63,10.12,1.99,19.58-1.46,28.63-5.57,26.27-11.94,52.34-24.33,78.52-36.47,8.85-4.1,17.85-7.86,26.67-12.04,4.58-2.17,9.33-5.37,5.93-11.16-3.12-5.31-7.66-2.21-11.68-.07-6.45,3.42-12.91,6.86-19.54,9.91-31.77,14.59-63.62,28.99-95.37,43.62-4.98,2.3-9.59,5.42-14.37,8.15Zm150.11-20.71c-.98-1.32-1.96-2.63-2.93-3.95-42.46,18.94-84.92,37.89-128.95,57.53,7.79,5.46,14.23,3.95,20.13,1.77,21.38-7.88,42.84-15.62,63.78-24.57,12.66-5.41,24.61-12.62,36.46-19.72,4.45-2.67,7.71-7.32,11.51-11.06Zm-22.75-67.33c-.53-1.71-1.06-3.43-1.59-5.14-3.77.26-7.73-.15-11.26.9-8.55,2.54-17.22,5.09-25.28,8.84-27.62,12.88-54.81,26.71-82.59,39.25-8.74,3.95-14.14,9.44-18.88,20.14,48.09-22.04,93.84-43.01,139.6-63.99Zm-167.58,116.4c10.85.24,18.28-.35,22.27-10.16-10.38-4.47-15.17,1.94-22.27,10.16Z"/>
    <path class="cls-9" d="m1494.27,1555.46c1.56-1.75,2.88-3.81,4.72-5.19,71.34-53.54,142.69-107.06,214.17-160.41,5.84-4.36,12.68-7.35,18.92-11.18,11.84-7.28,23.54-6.11,34.46,1.38,13.93,9.57,25.66,21.51,33.09,36.91,8.31,17.21,4.72,26.9-13.14,33.47-20.26,7.45-40.72,14.49-61.45,20.46-77.3,22.3-151.96,51.47-224.99,85.03-1.4.65-2.96.97-4.44,1.45-.44-.64-.89-1.27-1.33-1.91Zm207.34-104.8c10.83,3.56,30.98-1.06,35.74-8.09,1.74-2.58,1.86-6.73,1.47-10.02-.15-1.29-4.17-3.51-5.69-3.02-12.24,3.96-23.44,9.65-31.52,21.13Z"/>
    <path class="cls-5" d="m1844.11,717.43c.79,5.74,1.98,10.37,1.98,15,.04,139.51.11,279.03-.18,418.54-.07,33.84-1.36,67.68-2.16,101.51-.2,8.71-.98,17.48-8.87,23.02-2.7,1.89-6.85,3.31-9.82,2.64-1.83-.41-3.54-5.09-3.82-7.99-.99-10.13-1.79-20.33-1.87-30.5-.39-51.38-.3-102.76-.8-154.14-.58-59.54-1.69-119.07-2.32-178.61-.09-8.78-2.07-14.59-11.77-17.08-3.59-.92-7.92-6.33-8.55-10.24-5.11-31.85-10.06-64.06-3.2-96.06,5.58-26,21.78-46.11,42.19-62.72,1.98-1.61,5.03-1.9,9.17-3.37Zm-34.43,143.79c3.5-5.06,6.88-7.86,7.04-10.84.12-2.28-3.81-4.79-5.95-7.19-2.55,2.49-6.4,4.63-7.2,7.59-.57,2.12,2.95,5.35,6.11,10.45Zm13.35-65.32c-4.08-2.84-6.77-6.07-8.61-5.65-2.31.54-5.37,4.02-5.44,6.32-.07,2.24,3.22,4.58,5.03,6.88,2.45-2.05,4.89-4.1,9.01-7.55Z"/>
    <path class="cls-5" d="m1772.5,822.56c.23,5.18.26,10.37.73,15.52,1.48,16.19,2.62,32.44,4.91,48.52,1.42,9.97,3.85,19.85,12.9,26.78,2.64,2.02,3.64,7.11,4.05,10.94,1.09,10.11,1.74,20.28,2.02,30.45.92,32.96,1.71,65.93,2.34,98.9.37,19.62-1.25,21.11-20.36,21.07-1.63,0-3.26-.03-4.89-.05-24.64-.32-26.18-1.24-25.78-25.33,1-59.41.05-118.96,9.11-177.93,2.56-16.67,6.96-33.05,10.52-49.57,1.48.23,2.96.46,4.44.69Z"/>
    <path class="cls-7" d="m1739.42,1206.43c4.96,1.07,8.39,2.36,11.86,2.47,10.41.34,20.95,1.22,31.2-.07,7.13-.9,11.55-.26,11.9,7.34.97,21.09,1.85,42.19,2.04,63.29.08,8.93-5.6,13.73-14.58,15.05-22.15,3.26-41.76-10.74-44.92-32.76-2.61-18.22.14-36.14,2.49-55.32Z"/>
    <path class="cls-7" d="m1738.27,1146.76c0-10.18-.41-20.37.1-30.52.65-12.94,4.11-16.4,16.64-18.32,2.81-.43,5.66-.78,8.5-.88,25.04-.93,28,1.33,29.71,26.01,1.15,16.62,1.47,33.33,1.46,50,0,10.81-2.53,12.52-13.12,12.92-10.56.4-21.18.71-31.64,2.03-8.87,1.12-11.94-2.55-11.85-10.72.11-10.17.03-20.35.03-30.53.06,0,.12,0,.18,0Zm28.38,20c7.73-.11,13.71-6.3,13.55-14.04-.14-6.78-5.57-11.5-12.99-11.28-7.6.23-13.33,5.58-13.55,12.65-.23,7.5,5.18,12.78,12.98,12.67Z"/>
    <path class="cls-10" d="m232.18,1427.97c0,3.84-.39,7.72.06,11.5,2.58,21.74,11.85,40.65,25.87,57.1,33.94,39.84,71.76,75.63,113.58,107.17,3.27,2.47,6.03,5.64,9.02,8.48-.61,1.28-1.22,2.56-1.82,3.83-5.48-1.39-11.45-1.84-16.36-4.35-14.13-7.21-28.43-14.38-41.61-23.15-31.92-21.24-66.38-36.22-103.43-45.81-16.16-4.18-32.08-9.33-47.91-14.63-7.7-2.58-13.76-1.75-20.49,3.06-5.81,4.15-12.77,7.4-19.7,9.15-16.59,4.2-30.39-3.68-35.04-20.06-2.43-8.57-6.42-15.22-12.74-21.55-18.93-18.94-18.3-47.8,3.38-62.74,3.35-2.31,6.31-5.17,9.6-7.56,5.93-4.31,8.7-9.62,5.84-16.89-7.96-20.25,6.99-38.98,21.82-46.59,15.96-8.19,33.08-9.53,49.62-2.22,6.26,2.76,12.17,8.3,16,14.06,4.7,7.06,9.29,8.27,16.22,4.63,2.89-1.52,5.83-2.92,8.76-4.35,19.54-9.51,38.21-6.42,50.68,11.53,15.67,22.55,19.93,48.64,15.85,75.69-.69,4.55-5.21,8.53-7.97,12.77-3.78-3.79-8.45-7.05-11.09-11.51-2.37-4.01-2.56-9.32-3.63-14.08-2.75-12.12-11.52-18.74-20.64-25.06-1.29.52-2.58,1.04-3.86,1.56Zm-85.51,39.93c14.58-1.79,22.03,7.2,30.86,14.38,15.77,12.83,32.07,25.02,48.53,36.96,4.4,3.19,10.17,4.51,15.31,6.68.66-1.06,1.32-2.12,1.98-3.19-7.26-10.64-15.32-20.83-21.62-32.01-10.36-18.39-19.57-37.44-29.3-56.19-2.03-3.91-3.93-9.34-9.7-5.9-4.76,2.84-5.69,7.47-2.22,12.62,1.77,2.62,2.65,5.85,4.9,11.05-18.1-9.87-28.7-5.47-38.74,15.57Z"/>
    <path class="cls-10" d="m413.05,1640.45c5.84,1.28,11.9,1.97,17.5,3.95,51.19,18.02,101.32,38.32,146.91,68.44,15.93,10.53,28.98,23.77,38.9,39.93,7.27,11.85,12.04,24.98,3.82,37.98-8.2,12.96-22.36,13.21-35.22,10.61-11.76-2.38-23.99-6.26-34.04-12.61-55.15-34.88-100.63-79.77-135.38-135.21-2.02-3.22-3.36-6.87-5.02-10.33.84-.92,1.69-1.84,2.53-2.75Zm153.12,121.1c7.76.05,15.28-6.77,15.64-14.16.42-8.84-10.59-18.8-20.55-18.59-7.96.17-13.67,5.9-13.85,13.92-.21,9.29,9.24,18.77,18.76,18.83Z"/>
    <path class="cls-18" d="m452.35,353.28c-58.23-.44-98.25-18.9-124.83-62.11-22.35-36.34-19.51-86.66,8.13-119.12,7.79-9.15,19.69-16.04,31.05-20.65,22.59-9.17,42.98-20.47,60.59-37.88,24.12-23.85,54.86-26.13,85.74-18.45,15.42,3.84,29.98,12.45,43.89,20.65,11.39,6.72,10.88,13.33.92,22.2-23.91,21.3-51.67,36.89-78.68,53.67-15.83,9.83-30.78,21.15-45.53,32.57-4.78,3.7-11.46,9.63-6.68,16.43,5.18,7.37,12.68,2.89,18.53-.72,36.41-22.5,73.49-44.05,108.77-68.21,29.3-20.06,54.23-45.57,76.74-73.22,8.98-11.02,11.28-11.22,20.19.12,6.26,7.97,11.92,16.56,16.72,25.49,5.48,10.19,3.8,17.35-4.8,25.12-3.89,3.52-8.49,6.3-12.91,9.2-7.15,4.7-14.47,9.15-21.64,13.82-14.48,9.43-24.37,22.12-30.33,38.63-7.19,19.9-14.96,39.71-24.3,58.67-9.38,19.05-21.91,36.32-38.27,50.33-26.43,22.63-56.36,35.69-83.31,33.47Z"/>
    <path class="cls-13" d="m149,1182.6c-3.02,18.44-3.64,33.87-8.24,48-11.52,35.43-37.36,47.54-71.82,36.86-28.39-8.8-43.35-30.67-48.25-58.14-7.24-40.58-1.72-80.8,14.04-118.67,15.79-37.95,53.73-45.98,83.11-18.52,6.77,6.33,12.46,15.81,14.53,24.79,6.75,29.3,11.6,59.03,16.63,85.68Zm-64.59-28.14c-9.01,2.22-11.11,7.19-9.11,14.08,1.67,5.75,5.73,9.3,11.89,7.63,7.04-1.9,10.94-6.48,8.67-15.29-3.26.42-6.19.79-9.12,1.16-.68-2.21-1.36-4.42-2.34-7.57Z"/>
    <path class="cls-11" d="m140.81,497.99c-45.23,24.6-57.29,63.59-44.59,115.2-5.87-2.07-9.62-2.83-12.81-4.6-36.78-20.46-49.7-66.85-28.99-103.81,8.57-15.29,20.28-27.72,35.77-35.93,27.82-14.75,54.4-31.17,78.07-52.14,6.84-6.06,14.93-9.8,24.78-7.08,9.57,2.64,11.24,4.97,8.93,14.8-1.87,7.93-3.8,15.85-5.81,23.74-5.23,20.54-5.03,41.02-.66,61.77,4.75,22.55,6.07,45.22-1.24,67.68-6.9,21.22-21.04,35.53-41.64,43.44-16.21,6.23-28.86,1.97-37.61-12.99-12.35-21.09-11.71-43.29-1.31-64.43,6.02-12.24,15.61-22.73,23.69-33.94,2.27-3.15,4.89-6.06,7.34-9.08-1.31-.87-2.61-1.74-3.92-2.62Z"/>
    <path class="cls-11" d="m163.1,637.87c4.81-3.01,8.91-5.42,12.85-8.07,25.68-17.25,38.19-41.96,38.78-72.32.27-14.11-1.2-28.5-3.87-42.38-5.79-30.12-4.22-59.14,8.79-87.19,5.17-11.15,7.9-12.7,18.64-10.54,12.6,2.54,15.47,5.49,12.95,18.43-5.77,29.6-.91,57.03,11.87,84.21,12.75,27.09,14.38,54.95-2.14,81.85-18.38,29.93-60.29,47.32-94.58,39.06-.66-.16-1.15-1.02-3.29-3.05Z"/>
    <path class="cls-2" d="m940.94,226c-18.68-1.15-37.37-2.15-56.03-3.5-13.48-.97-24.06-7.14-30.98-18.96-14.05-24-22.74-49.45-21.67-77.75,1.65-43.52,34.95-67.21,76.56-54.18,4.27,1.34,8.37,3.98,12.68,4.28,7.09.5,15.01,1.45,21.3-1.03,39.71-15.67,59.28-2.41,78.53,23.35,5.67,7.59,8.06,18.78,8.96,28.59,2.38,26.14-3.65,50.95-15.66,74.31-7.77,15.11-19.72,23.49-36.96,23.61-12.22.08-24.44.02-36.65.02-.02.42-.04.85-.06,1.27Z"/>
    <path class="cls-10" d="m1248.52,143.06c18.39,9.51,36.38,19.91,55.27,28.31,30.23,13.45,54.15,34.51,75.74,58.8,1.55,1.74,2.58,3.94,4,6.16-1.35,1.08-2.32,2.49-3.13,2.4-38.14-4-76.5-7.29-111.96-23.57-10.3-4.73-20.36-10.57-29.35-17.45-35.99-27.56-37-81.25-2.46-110.68,19.17-16.33,40.36-23.87,65.72-15.93,12.8,4.01,26.82,4.63,39.07,9.73,31.35,13.04,50.35,38.11,60.67,69.67,8.6,26.29,9.91,53.67,8.56,81.13-.18,3.61-2.88,7.09-4.41,10.63-3.46-1.67-7.86-2.51-10.23-5.16-14.13-15.81-29.5-30.93-41.02-48.52-7.97-12.17-10.29-28.01-15.44-42.09-1.03-2.83-3.49-5.13-5.24-7.71-1.99-2.94-4.3-5.73-5.79-8.9-5.73-12.17-11.13-24.5-16.83-36.68-.95-2.02-2.81-3.62-4.83-6.14-5.28,6.12-1.23,10.67.7,15.03,9.91,22.37,20.08,44.63,29.99,66.99,1.52,3.44,2.2,7.26,3.27,10.9-.73.51-1.45,1.02-2.18,1.53-14.43-7.94-28.57-16.5-43.39-23.65-14.57-7.03-29.84-12.63-44.8-18.86-.65,1.36-1.3,2.72-1.95,4.08Z"/>
    <path d="m921.34,1601.49c-105.84-.54-205.46-24.77-297.56-77.31-50.55-28.84-96.88-63.56-136.8-106.19-58.73-62.71-109.06-131.14-139.15-212.53-26.02-70.38-44.49-142.35-44-218.27.28-43.32.02-87.02,10.59-128.92,28.15-111.59,73.28-215.02,151.21-302.28,51.66-57.86,112.49-102.46,181.97-136.08,52.7-25.5,106.67-46.97,164.47-58.18,99.22-19.24,197.7-15.94,294.12,13.7,136.52,41.96,247.68,120.7,330.73,237.71,36.36,51.23,65.33,106.31,84.06,166.44,9.56,30.71,22.11,61.16,26.6,92.68,25.7,180.42-15.1,343.88-127.88,488.73-43.62,56.02-93.88,104.35-153.75,142.06-86.65,54.58-180.69,88.41-283.54,95.31-20.33,1.37-40.71,2.11-61.06,3.14Zm564.09-831.41c1.11-.7,2.22-1.41,3.33-2.11-.8-4.07-.81-8.51-2.53-12.14-12.37-26.14-24.18-52.61-37.88-78.06-31.85-59.13-73.68-110.81-124.4-154.54-59.53-51.33-127-89.87-201.1-116.56-63.21-22.77-128.64-34.07-195.52-34.01-40.67.04-81.3,4.71-121.31,13.85-98.02,22.41-186.09,64.98-263.43,129.1-50.74,42.06-92.17,92.39-124.65,149.65-14.23,25.09-25.98,51.65-37.72,78.04-5.33,11.99-3.22,15.05,7.24,22.57,6.95,4.99,14.05,9.82,20.67,15.23,6.33,5.17,11.42,5,16.64-1.46,9.22-11.42,18.58-22.73,28.11-33.9,13.49-15.82,26.87-31.76,40.89-47.1,11.74-12.86,17.16-12.74,29.21-.67,7.2,7.21,14,14.83,20.88,22.35,13.49,14.74,26.71,29.74,40.44,44.26,7.37,7.79,9.56,7.5,16.95.07,2.87-2.89,5.53-6,8.14-9.13,25.59-30.7,51.07-61.5,76.74-92.13,12.31-14.69,24.65-29.38,37.56-43.53,8.66-9.5,12.53-9.15,20.7.36,11.43,13.3,22.68,26.75,33.82,40.29,27.49,33.37,54.78,66.89,82.34,100.2,8.96,10.83,12.3,10.94,20.15,1.79,20.7-24.14,41.32-48.35,61.98-72.53,11.39-13.32,22.3-27.1,34.35-39.8,10.35-10.91,22.39-10.56,33.53-.5,3.32,3,6.42,6.29,9.28,9.74,18.47,22.3,36.93,44.61,55.2,67.07,10.09,12.4,12.87,12.62,23.3.49,2.92-3.4,5.55-7.06,8.5-10.44,17.66-20.31,35.14-40.78,53.16-60.76,9.97-11.05,15.64-11.55,27.12-1.87,9.62,8.11,18.19,17.5,26.9,26.63,20.27,21.24,40.1,42.9,60.6,63.9,8.7,8.91,11.74,8.44,20-.69,21.07-23.27,41.89-46.78,62.98-70.03,4.63-5.11,9.54-10.18,15.12-14.16,9.28-6.62,15.76-6.11,24.18,1.71,6.55,6.09,12.86,12.6,18.29,19.68,19.86,25.88,39.21,52.15,58.98,78.1,3.16,4.14,7.48,7.4,11.26,11.06Zm-830.6,393.36c.03,1.25.06,2.5.09,3.75,2.52,1.02,4.98,2.25,7.57,3.02,46.53,13.97,92.78,28.76,136.4,50.44,8.92,4.43,17.55,10.68,24.3,17.96,16.86,18.17,14.39,42.34-5.07,58-5.04,4.06-10.55,8.16-16.54,10.3-17.23,6.16-34.52,12.57-52.31,16.64-44.92,10.29-90.36,18.38-135.13,29.24-33.67,8.17-66.8,18.87-96.23,38.23-9.38,6.17-9.93,9.43-1.76,16.86,35.07,31.89,71.69,61.93,112.71,85.89,83.99,49.05,174.87,75.87,272,80.03,72.23,3.09,142.97-4.88,212.21-28.12,85.6-28.73,159.99-74.69,225.04-136.64,7.1-6.76,6.94-10.32-1.31-15.05-12.73-7.3-25.42-14.82-38.75-20.87-40.77-18.5-84.14-28.26-127.82-36.97-30.79-6.14-61.53-12.66-92.03-20.09-20.3-4.95-39.72-12.78-55.09-27.82-16.86-16.49-16.39-40.49,1.5-55.97,7.65-6.62,15.95-13.1,25.04-17.32,24.36-11.32,49.29-21.4,74.01-31.95,4.12-1.76,8.59-2.91,12.33-5.25,5.48-3.42,5.41-8.12.3-11.81-3.58-2.58-7.77-4.65-11.99-5.94-19.09-5.86-38.02-12.61-57.5-16.77-67.56-14.44-136.14-14.93-204.7-11.55-57.53,2.84-114.32,12.36-170.78,23.55-12.22,2.42-24.32,5.45-36.48,8.2Zm81.97-49.03c-4.09-5.18-6.41-8.86-9.44-11.81-21.86-21.36-43.85-42.58-65.84-63.81-54.53-52.66-108.96-105.44-163.7-157.88-19.71-18.88-40.09-37.07-60.4-55.32-9.63-8.65-12.18-8.7-21.24.96-22.03,23.47-43.7,47.28-65.32,71.12-8.42,9.28-14.43,20.14-14.65,32.88-.55,31.32-.67,62.65-.51,93.97.07,14.71,8.63,24.13,21.49,29.97,68.35,31.04,137.87,59.08,209.34,82.21,21.66,7.01,41.96,9.96,65.16,2.02,27.94-9.57,57.92-13.16,86.99-19.44,5.36-1.16,10.61-2.82,18.13-4.86Zm780.48-18.54c.35-12.32-2.75-13.89-14.19-10.26-40.42,12.82-80.99,25.24-121.19,38.74-92.78,31.14-185.48,62.54-277.96,94.54-17.99,6.22-35.49,14.58-52.05,24-14.21,8.09-13.97,21.56-.05,29.94,9.27,5.59,19.85,9.72,30.38,12.38,52.97,13.37,106.19,25.78,159.19,39.03,40.89,10.22,80.68,23.4,116.4,46.7,8.84,5.77,10.76,5.22,19.15-4.84,57.04-68.32,101.53-143.76,128.8-228.83,4.72-14.73,8.33-29.82,11.53-41.4Zm-238.81-96.03c-.98-1.93-1.96-3.85-2.94-5.78-3.32-.83-6.6-2.2-9.95-2.4-18.71-1.1-37.44-2.69-56.16-2.72-183.05-.21-366.1-.14-549.15-.1-3.39,0-6.79.68-12.06,1.25,2.98,3.9,4.34,6.31,6.27,8.12,36.54,34.32,73.32,68.38,109.59,102.97,7.97,7.6,16.13,11.97,27.18,10.58,4.03-.51,8.14-.43,12.21-.53,57.02-1.44,114.04-4.16,171.05-3.91,48.21.21,96.44,5.67,142,22.03,21.72,7.8,35.6,2.58,48.76-13.25.78-.94,1.71-1.75,2.54-2.65,32.45-34.94,64.8-69.95,97.45-104.7,3.55-3.78,8.76-5.98,13.21-8.91Zm-936.62,93.8c.44,2.01.88,4.42,1.49,6.79,17.99,70.33,42.76,137.93,82.9,198.91,14.53,22.07,31.16,42.78,47.12,63.89,4.2,5.55,9.48,8.37,16.96,4.15,45.76-25.83,96.2-37.63,146.97-48.25,31.92-6.68,64.16-11.96,95.9-19.38,21.37-4.99,42.39-11.87,63.04-19.34,13.64-4.93,14.69-17.3,3.44-26.53-2.49-2.04-5.37-3.76-8.31-5.09-10.4-4.71-20.67-9.82-31.4-13.64-57.99-20.63-115.93-41.42-174.21-61.19-69.89-23.71-139.93-46.95-207.64-76.55-8.96-3.92-18.04-7.6-27.2-11.04-6.2-2.33-9.41.13-9.04,7.28Zm1187.46-125.43c-.41-.02-.83-.03-1.24-.05,0-9.79.14-19.58-.02-29.37-.9-55.73-3.73-66.94-28.89-115.56-4.2-8.12-6.79-9.1-14.05-3.7-6.51,4.85-12.82,10.16-18.4,16.04-60.62,63.87-121.46,127.54-181.44,192.02-33.87,36.41-66.34,74.13-99.16,111.5-2.56,2.92-5.25,9.78-3.94,11.2,2.83,3.09,8.09,4.54,12.59,5.31,2.94.51,6.35-1.14,9.43-2.18,19.29-6.54,38.49-13.37,57.83-19.77,81.3-26.9,162.57-53.91,244.04-80.29,13.28-4.3,19.52-11.8,20.08-25.36.82-19.94,2.1-39.86,3.19-59.79Zm-376.84-11.59c.49,1.17.98,2.35,1.48,3.52,5.04.69,10.06,1.85,15.12,2,37.88,1.17,75.78,1.61,113.62,3.49,12.15.6,20.93-2.62,29.32-11.1,48.72-49.28,97.79-98.21,146.68-147.32,9.84-9.88,10.58-13.1,2.09-24.06-23.71-30.59-48.03-60.7-71.97-91.11-4.46-5.66-8.46-5.33-13.01-.43-3.05,3.28-6.4,6.3-9.34,9.67-28.34,32.59-57.03,64.9-84.84,97.95-39.35,46.76-78.06,94.06-116.98,141.18-4.3,5.2-8.13,10.79-12.18,16.2Zm-406.47-294.71c-3-4.47-5.48-9.6-9.44-13.06-.96-.84-7.27,3.29-10.2,6.09-5.59,5.33-10.82,11.11-15.66,17.14-30.85,38.48-61.43,77.18-92.44,115.53-5.36,6.63-5.69,12-.34,18.35,13.92,16.52,27.44,33.38,41.61,49.68,20.59,23.69,41.45,47.15,62.53,70.4,7.77,8.57,9.73,8.11,17.04-.96,6.4-7.94,12.49-16.13,19.07-23.9,28.45-33.61,57.09-67.05,85.53-100.66,9.48-11.2,9.14-14.17-.37-25-24.19-27.55-48.3-55.17-72.37-82.82-7.59-8.72-10-8.91-16.11,1.04-9.8,15.97-18.85,32.4-28.6,48.4-3.36,5.51-5.85,15.33-14.45,11.58-9.55-4.16-3.93-13.12-1.14-19.16,8.68-18.86,18.35-37.26,27.57-55.88,2.51-5.07,4.77-10.26,7.77-16.77Zm-31.46,297.5c.63-1.32,1.27-2.64,1.9-3.96-4.44-5.48-8.69-11.14-13.35-16.42-30.77-34.83-61.7-69.5-92.43-104.36-30.46-34.56-60.5-69.5-91.24-103.8-11.71-13.07-14.05-12.4-25.29,1.66-13.5,16.89-26.88,33.87-40.36,50.77-9.07,11.37-9.15,12.85,1.38,23.36,32.63,32.56,64.89,65.51,98.21,97.35,19.72,18.84,41.01,36.05,61.99,53.53,3.77,3.14,9.41,5.6,14.21,5.66,21.19.25,42.4-.29,63.58-1,7.15-.24,14.26-1.81,21.39-2.77Zm355.11-197.6c-1.45-3.01-2.08-5.48-3.57-7.24-21.31-25.2-42.51-50.51-64.25-75.33-8.16-9.32-10.34-9.14-18.31.18-19.33,22.61-38.15,45.65-57.32,68.41-10.76,12.78-21.76,25.36-32.74,37.95-5.44,6.24-5.69,12.1.14,18.35,5.28,5.66,10,11.83,15.17,17.59,14.42,16.08,28.46,32.53,43.58,47.92,10.55,10.73,14.73,10.2,25.51-.5,7.8-7.74,15.09-16.02,22.36-24.28,20.45-23.25,40.85-46.55,61.06-70.02,3.36-3.9,5.64-8.72,8.37-13.04Zm64.91,171.76c2.56-2.17,4.64-3.47,6.14-5.26,23.86-28.41,47.61-56.91,71.49-85.31,5.16-6.14,4.55-11.56-.65-17.34-5.72-6.36-11-13.12-16.54-19.64-18.2-21.45-36.17-43.1-54.77-64.19-8.17-9.27-11.82-9.44-18.81-1.09-24.05,28.76-47.6,57.95-71.33,86.99-4.29,5.25-4.13,10.14.63,15.22,7.53,8.03,14.74,16.35,22.11,24.53,17.74,19.69,35.45,39.4,53.3,59,2.37,2.6,5.41,4.58,8.44,7.1Zm-311.36,30.99v.26c19.55,0,39.09-.03,58.64.01,10.07.02,17.85-3.81,24.01-12.06,9.74-13.04,20.19-25.56,30.21-38.39,9.22-11.8,9.4-13.85-.6-25.08-20.58-23.1-41.46-45.93-62.3-68.79-6.69-7.34-8.52-7.26-15.26.77-10.21,12.16-20.3,24.42-30.31,36.76-22.82,28.14-45.73,56.22-68.16,84.67-3.78,4.8-5.37,11.33-7.97,17.07,5.99,1.6,11.95,4.36,17.99,4.57,17.9.61,35.83.22,53.75.22Zm108.24-2.4c4.76,1.06,8.09,2.45,11.42,2.46,52.52.14,105.04.26,157.55-.13,4.7-.03,12.55-2.76,13.32-5.71,1.12-4.31-1.53-11.1-4.84-14.83-23.21-26.19-46.82-52.04-70.7-77.62-10.71-11.47-12.91-11.61-23.41-.14-26.11,28.5-51.68,57.5-77.37,86.39-2.05,2.3-3.33,5.29-5.97,9.59Zm334-189.3c-1.6-1.95-3.95-5.19-6.68-8.05-19.36-20.32-38.86-40.5-58.18-60.86-5.87-6.19-11.23-12.87-16.95-19.2-4.34-4.8-9.32-5.19-13.75-.46-7.21,7.71-14.16,15.68-20.93,23.78-4.29,5.13-2.23,9.15,2.28,13.58,10.99,10.79,21.88,21.76,31.87,33.45,14.26,16.7,27.54,34.24,41.62,51.11,2.61,3.12,6.83,6.27,10.62,6.7,5.28.61,30.59-32.64,30.09-40.04Zm-920.2,89.76c3.06-2.19,5.21-3.2,6.67-4.84,10.5-11.86,20.97-23.75,31.25-35.8q14.32-16.78-4.14-29.87c-9.4-6.66-12.03-6.47-15.87,4.5-6.97,19.92-12.82,40.22-19.04,60.4-.3.98.42,2.27,1.13,5.62Z"/>
    <path d="m1335.13,1705.83c4.78-2.74,9.38-5.86,14.37-8.15,31.75-14.63,63.61-29.03,95.37-43.62,6.63-3.05,13.09-6.49,19.54-9.91,4.03-2.14,8.57-5.24,11.68.07,3.4,5.79-1.35,8.99-5.93,11.16-8.81,4.18-17.82,7.94-26.67,12.04-26.18,12.14-52.25,24.53-78.52,36.47-9.05,4.11-18.52,7.55-28.63,5.57-.4-1.21-.8-2.42-1.21-3.63Z"/>
    <path d="m1485.24,1685.12c-3.8,3.75-7.06,8.4-11.51,11.06-11.85,7.1-23.8,14.31-36.46,19.72-20.94,8.95-42.4,16.69-63.78,24.57-5.9,2.18-12.34,3.69-20.13-1.77,44.03-19.64,86.49-38.59,128.95-57.53.98,1.32,1.96,2.63,2.93,3.95Z"/>
    <path d="m1462.49,1617.79c-45.76,20.97-91.51,41.95-139.6,63.99,4.74-10.7,10.14-16.19,18.88-20.14,27.77-12.54,54.96-26.37,82.59-39.25,8.06-3.76,16.72-6.3,25.28-8.84,3.53-1.05,7.5-.64,11.26-.9.53,1.71,1.06,3.43,1.59,5.14Z"/>
    <path d="m1294.91,1734.19c7.09-8.22,11.89-14.63,22.27-10.16-3.98,9.81-11.42,10.39-22.27,10.16Z"/>
    <path d="m1701.61,1450.66c8.08-11.48,19.28-17.17,31.52-21.13,1.52-.49,5.54,1.73,5.69,3.02.39,3.29.27,7.44-1.47,10.02-4.76,7.04-24.91,11.66-35.74,8.09Z"/>
    <path d="m1809.68,861.22c-3.16-5.1-6.68-8.33-6.11-10.45.8-2.96,4.66-5.1,7.2-7.59,2.13,2.41,6.07,4.91,5.95,7.19-.16,2.98-3.54,5.79-7.04,10.84Z"/>
    <path d="m1823.04,795.9c-4.12,3.45-6.57,5.5-9.01,7.55-1.81-2.3-5.1-4.64-5.03-6.88.07-2.29,3.13-5.78,5.44-6.32,1.84-.43,4.53,2.81,8.61,5.65Z"/>
    <path d="m1766.65,1166.76c-7.81.11-13.21-5.17-12.98-12.67.22-7.07,5.95-12.42,13.55-12.65,7.41-.22,12.85,4.5,12.99,11.28.16,7.74-5.82,13.93-13.55,14.04Z"/>
    <path d="m146.67,1467.9c10.04-21.05,20.64-25.44,38.74-15.57-2.25-5.2-3.13-8.42-4.9-11.05-3.48-5.15-2.54-9.79,2.22-12.62,5.77-3.44,7.67,1.99,9.7,5.9,9.74,18.75,18.94,37.79,29.3,56.19,6.3,11.18,14.35,21.37,21.62,32.01-.66,1.06-1.32,2.12-1.98,3.19-5.14-2.18-10.91-3.49-15.31-6.68-16.46-11.94-32.76-24.13-48.53-36.96-8.83-7.18-16.27-16.18-30.86-14.38Z"/>
    <path d="m566.17,1761.54c-9.53-.06-18.97-9.54-18.76-18.83.18-8.02,5.89-13.76,13.85-13.92,9.96-.21,20.97,9.76,20.55,18.59-.35,7.39-7.88,14.2-15.64,14.16Z"/>
    <path d="m84.42,1154.47c.97,3.15,1.65,5.36,2.34,7.58,2.93-.37,5.85-.75,9.11-1.16,2.27,8.81-1.63,13.39-8.67,15.29-6.16,1.67-10.23-1.88-11.89-7.63-2-6.89.1-11.86,9.11-14.08Z"/>
    <path class="cls-8" d="m1485.43,770.08c-3.78-3.67-8.11-6.92-11.26-11.06-19.77-25.95-39.13-52.21-58.98-78.1-5.43-7.08-11.74-13.59-18.29-19.68-8.42-7.83-14.9-8.34-24.18-1.71-5.58,3.98-10.49,9.05-15.12,14.16-21.09,23.25-41.9,46.76-62.98,70.03-8.27,9.13-11.31,9.59-20,.69-20.51-21-40.34-42.66-60.6-63.9-8.71-9.13-17.28-18.52-26.9-26.63-11.48-9.68-17.15-9.18-27.12,1.87-18.02,19.98-35.5,40.45-53.16,60.76-2.94,3.38-5.57,7.04-8.5,10.44-10.44,12.13-13.22,11.91-23.3-.49-18.27-22.46-36.73-44.76-55.2-67.07-2.85-3.45-5.96-6.74-9.28-9.74-11.15-10.06-23.18-10.41-33.53.5-12.05,12.7-22.97,26.47-34.35,39.8-20.66,24.17-41.28,48.39-61.98,72.53-7.85,9.16-11.19,9.04-20.15-1.79-27.56-33.31-54.86-66.83-82.34-100.2-11.15-13.53-22.4-26.99-33.82-40.29-8.17-9.51-12.04-9.86-20.7-.36-12.91,14.15-25.25,28.84-37.56,43.53-25.67,30.63-51.15,61.43-76.74,92.13-2.61,3.13-5.26,6.25-8.14,9.13-7.4,7.44-9.59,7.73-16.95-.07-13.73-14.52-26.95-29.51-40.44-44.26-6.88-7.52-13.68-15.14-20.88-22.35-12.05-12.07-17.46-12.19-29.21.67-14.02,15.35-27.4,31.28-40.89,47.1-9.52,11.17-18.88,22.48-28.11,33.9-5.22,6.46-10.31,6.63-16.64,1.46-6.62-5.41-13.72-10.24-20.67-15.23-10.46-7.52-12.57-10.58-7.24-22.57,11.75-26.39,23.49-52.96,37.72-78.04,32.48-57.25,73.91-107.59,124.65-149.65,77.35-64.12,165.42-106.69,263.43-129.1,40.01-9.15,80.64-13.82,121.31-13.85,66.88-.06,132.32,11.24,195.52,34.01,74.11,26.69,141.57,65.24,201.1,116.56,50.72,43.73,92.54,95.41,124.4,154.54,13.71,25.44,25.51,51.91,37.88,78.06,1.72,3.63,1.73,8.07,2.53,12.14-1.11.7-2.22,1.41-3.33,2.11Z"/>
    <path class="cls-15" d="m654.83,1163.43c12.16-2.75,24.26-5.78,36.48-8.2,56.47-11.19,113.25-20.71,170.78-23.55,68.56-3.38,137.14-2.89,204.7,11.55,19.47,4.16,38.41,10.91,57.5,16.77,4.22,1.3,8.41,3.37,11.99,5.94,5.11,3.68,5.18,8.39-.3,11.81-3.74,2.34-8.22,3.49-12.33,5.25-24.71,10.55-49.65,20.63-74.01,31.95-9.08,4.22-17.39,10.71-25.04,17.32-17.89,15.48-18.37,39.48-1.5,55.97,15.38,15.03,34.79,22.87,55.09,27.82,30.5,7.43,61.24,13.95,92.03,20.09,43.69,8.7,87.05,18.47,127.82,36.97,13.33,6.05,26.02,13.58,38.75,20.87,8.25,4.73,8.41,8.29,1.31,15.05-65.05,61.95-139.44,107.91-225.04,136.64-69.24,23.24-139.98,31.21-212.21,28.12-97.12-4.16-188-30.98-272-80.03-41.02-23.96-77.64-54-112.71-85.89-8.17-7.43-7.62-10.68,1.76-16.86,29.44-19.36,62.56-30.06,96.23-38.23,44.77-10.86,90.21-18.95,135.13-29.24,17.78-4.07,35.08-10.48,52.31-16.64,5.99-2.14,11.5-6.25,16.54-10.3,19.45-15.66,21.93-39.83,5.07-58-6.75-7.28-15.39-13.53-24.3-17.96-43.62-21.68-89.88-36.47-136.4-50.44-2.59-.78-5.05-2.01-7.57-3.02-.03-1.25-.06-2.5-.09-3.75Z"/>
    <path class="cls-17" d="m736.8,1114.4c-7.52,2.03-12.77,3.7-18.13,4.86-29.07,6.28-59.05,9.87-86.99,19.44-23.2,7.95-43.5,4.99-65.16-2.02-71.47-23.13-140.99-51.17-209.34-82.21-12.86-5.84-21.42-15.26-21.49-29.97-.16-31.32-.04-62.65.51-93.97.23-12.73,6.24-23.6,14.65-32.88,21.63-23.84,43.3-47.65,65.32-71.12,9.06-9.66,11.62-9.61,21.24-.96,20.31,18.25,40.69,36.44,60.4,55.32,54.74,52.44,109.17,105.22,163.7,157.88,21.99,21.23,43.98,42.46,65.84,63.81,3.03,2.96,5.34,6.64,9.44,11.81Z"/>
    <path class="cls-1" d="m1517.28,1095.86c-3.2,11.59-6.81,26.67-11.53,41.4-27.27,85.07-71.76,160.5-128.8,228.83-8.4,10.06-10.31,10.6-19.15,4.84-35.72-23.3-75.51-36.48-116.4-46.7-53-13.25-106.22-25.66-159.19-39.03-10.53-2.66-21.11-6.79-30.38-12.38-13.92-8.39-14.16-21.86.05-29.94,16.56-9.42,34.06-17.77,52.05-24,92.48-32.01,185.18-63.4,277.96-94.54,40.2-13.49,80.76-25.91,121.19-38.74,11.45-3.63,14.55-2.05,14.19,10.26Z"/>
    <path class="cls-16" d="m1278.47,999.83c-4.44,2.93-9.66,5.14-13.21,8.91-32.65,34.74-65.01,69.76-97.45,104.7-.83.9-1.76,1.71-2.54,2.65-13.16,15.83-27.04,21.06-48.76,13.25-45.56-16.37-93.79-21.83-142-22.03-57.01-.25-114.03,2.47-171.05,3.91-4.07.1-8.18.03-12.21.53-11.05,1.39-19.21-2.99-27.18-10.58-36.28-34.59-73.06-68.65-109.59-102.97-1.93-1.81-3.29-4.22-6.27-8.12,5.27-.56,8.66-1.25,12.06-1.25,183.05-.04,366.1-.11,549.15.1,18.72.02,37.45,1.61,56.16,2.72,3.35.2,6.64,1.57,9.95,2.4.98,1.93,1.96,3.85,2.94,5.78Z"/>
    <path class="cls-1" d="m341.85,1093.63c-.37-7.15,2.84-9.61,9.04-7.28,9.15,3.45,18.23,7.13,27.2,11.04,67.71,29.6,137.75,52.84,207.64,76.55,58.28,19.77,116.22,40.56,174.21,61.19,10.73,3.82,21,8.93,31.4,13.64,2.94,1.33,5.82,3.04,8.31,5.09,11.25,9.23,10.2,21.6-3.44,26.53-20.66,7.47-41.68,14.35-63.04,19.34-31.74,7.42-63.98,12.7-95.9,19.38-50.76,10.62-101.21,22.42-146.97,48.25-7.47,4.22-12.76,1.4-16.96-4.15-15.96-21.11-32.59-41.81-47.12-63.89-40.14-60.99-64.91-128.59-82.9-198.91-.61-2.37-1.05-4.77-1.49-6.79Z"/>
    <path class="cls-14" d="m1529.31,968.2c-1.09,19.93-2.37,39.85-3.19,59.79-.56,13.56-6.8,21.06-20.08,25.36-81.47,26.38-162.74,53.39-244.04,80.29-19.34,6.4-38.53,13.23-57.83,19.77-3.08,1.04-6.49,2.69-9.43,2.18-4.5-.77-9.76-2.22-12.59-5.31-1.3-1.42,1.38-8.29,3.94-11.2,32.83-37.37,65.29-75.09,99.16-111.5,59.98-64.47,120.82-128.14,181.44-192.02,5.58-5.88,11.89-11.2,18.4-16.04,7.26-5.41,9.85-4.42,14.05,3.7,25.16,48.62,27.98,59.83,28.89,115.56.16,9.79.02,19.58.02,29.37.41.02.83.03,1.24.05Z"/>
    <path class="cls-4" d="m1152.47,956.61c4.05-5.41,7.88-11,12.18-16.2,38.91-47.13,77.63-94.42,116.98-141.18,27.81-33.05,56.49-65.36,84.84-97.95,2.94-3.38,6.29-6.39,9.34-9.67,4.55-4.9,8.56-5.23,13.01.43,23.94,30.41,48.26,60.52,71.97,91.11,8.49,10.96,7.75,14.18-2.09,24.06-48.89,49.11-97.96,98.05-146.68,147.32-8.38,8.48-17.17,11.71-29.32,11.1-37.84-1.88-75.75-2.32-113.62-3.49-5.06-.16-10.08-1.31-15.12-2-.49-1.17-.98-2.35-1.48-3.52Z"/>
    <path class="cls-6" d="m746,661.9c-3.01,6.51-5.26,11.7-7.77,16.77-9.22,18.62-18.89,37.02-27.57,55.88-2.78,6.04-8.41,15,1.14,19.16,8.61,3.75,11.09-6.07,14.45-11.58,9.75-16,18.79-32.43,28.6-48.4,6.11-9.95,8.52-9.76,16.11-1.04,24.07,27.65,48.18,55.27,72.37,82.82,9.51,10.83,9.85,13.79.37,25-28.44,33.61-57.08,67.06-85.53,100.66-6.58,7.78-12.67,15.96-19.07,23.9-7.31,9.07-9.27,9.53-17.04.96-21.08-23.25-41.94-46.72-62.53-70.4-14.17-16.3-27.69-33.16-41.61-49.68-5.35-6.35-5.02-11.72.34-18.35,31-38.36,61.58-77.06,92.44-115.53,4.84-6.03,10.07-11.8,15.66-17.14,2.93-2.8,9.24-6.93,10.2-6.09,3.95,3.45,6.44,8.59,9.44,13.06Z"/>
    <path class="cls-4" d="m714.54,959.4c-7.13.96-14.24,2.53-21.39,2.77-21.19.71-42.39,1.25-63.58,1-4.81-.06-10.45-2.52-14.21-5.66-20.97-17.48-42.27-34.69-61.99-53.53-33.32-31.84-65.59-64.78-98.21-97.35-10.53-10.51-10.45-11.99-1.38-23.36,13.48-16.9,26.86-33.88,40.36-50.77,11.24-14.06,13.58-14.72,25.29-1.66,30.74,34.31,60.77,69.25,91.24,103.8,30.73,34.86,61.66,69.54,92.43,104.36,4.67,5.28,8.91,10.94,13.35,16.42-.63,1.32-1.27,2.64-1.9,3.96Z"/>
    <path class="cls-6" d="m1069.65,761.8c-2.73,4.32-5.01,9.14-8.37,13.04-20.21,23.46-40.61,46.76-61.06,70.02-7.27,8.26-14.55,16.54-22.36,24.28-10.78,10.7-14.97,11.23-25.51.5-15.12-15.39-29.16-31.84-43.58-47.92-5.17-5.76-9.89-11.94-15.17-17.59-5.84-6.25-5.58-12.11-.14-18.35,10.98-12.6,21.98-25.18,32.74-37.95,19.17-22.75,37.99-45.79,57.32-68.41,7.96-9.32,10.14-9.5,18.31-.18,21.74,24.83,42.94,50.13,64.25,75.33,1.49,1.76,2.12,4.23,3.57,7.24Z"/>
    <path class="cls-6" d="m1134.55,933.56c-3.03-2.51-6.07-4.5-8.44-7.1-17.84-19.6-35.55-39.31-53.3-59-7.37-8.18-14.58-16.5-22.11-24.53-4.76-5.08-4.93-9.97-.63-15.22,23.73-29.03,47.28-58.22,71.33-86.99,6.99-8.36,10.64-8.18,18.81,1.09,18.6,21.1,36.57,42.74,54.77,64.19,5.54,6.53,10.82,13.28,16.54,19.64,5.2,5.77,5.81,11.19.65,17.34-23.87,28.4-47.62,56.9-71.49,85.31-1.5,1.79-3.58,3.09-6.14,5.26Z"/>
    <path class="cls-4" d="m823.19,964.55c-17.92,0-35.85.39-53.75-.22-6.04-.21-12-2.97-17.99-4.57,2.6-5.73,4.19-12.27,7.97-17.07,22.43-28.45,45.34-56.53,68.16-84.67,10-12.33,20.09-24.6,30.31-36.76,6.74-8.02,8.57-8.11,15.26-.77,20.84,22.86,41.72,45.69,62.3,68.79,10,11.23,9.82,13.28.6,25.08-10.02,12.84-20.47,25.35-30.21,38.39-6.16,8.25-13.94,12.08-24.01,12.06-19.55-.04-39.09-.01-58.64-.01v-.26Z"/>
    <path class="cls-4" d="m931.43,962.15c2.64-4.3,3.92-7.29,5.97-9.59,25.69-28.89,51.26-57.89,77.37-86.39,10.5-11.47,12.7-11.33,23.41.14,23.88,25.58,47.49,51.43,70.7,77.62,3.31,3.73,5.96,10.52,4.84,14.83-.77,2.94-8.62,5.67-13.32,5.71-52.51.39-105.03.28-157.55.13-3.33,0-6.66-1.4-11.42-2.46Z"/>
    <path class="cls-6" d="m1265.43,772.85c.5,7.4-24.81,40.65-30.09,40.04-3.79-.44-8.02-3.58-10.62-6.7-14.08-16.87-27.35-34.41-41.62-51.11-9.99-11.7-20.88-22.67-31.87-33.45-4.51-4.43-6.57-8.44-2.28-13.58,6.77-8.1,13.71-16.08,20.93-23.78,4.42-4.73,9.41-4.34,13.75.46,5.72,6.34,11.08,13.01,16.95,19.2,19.31,20.36,38.82,40.55,58.18,60.86,2.73,2.87,5.07,6.1,6.68,8.05Z"/>
    <path class="cls-4" d="m345.24,862.61c-.71-3.34-1.43-4.64-1.13-5.62,6.21-20.18,12.07-40.48,19.04-60.4,3.84-10.97,6.46-11.16,15.87-4.5q18.39,13.03,4.14,29.87c-10.28,12.05-20.75,23.95-31.25,35.8-1.45,1.64-3.6,2.66-6.67,4.84Z"/>
  </g>
</svg>